<svg height="24" viewBox="0 0 120 24" width="120" xmlns="http://www.w3.org/2000/svg"><g fill="#fff" fill-rule="evenodd"><path d="m5.425 13.235h-1.985c-2.244 0-3.105.55-3.105 1.896v.36h1.253v-.26c0-.604.307-.98 1.883-.98h1.84c1.927 0 2.775.174 2.775 1.502v1.39h-.036c-.434-.71-1.018-.884-2.653-.884h-2.014c-2.187 0-3.383.204-3.383 1.88v.49c0 1.39.496 2.214 2.392 2.214h3.005c1.927 0 2.32-.188 2.654-.855h.034v.738h1.25v-4.946c0-2.196-1.572-2.545-3.908-2.545zm2.658 5.51c0 .923-.876 1.08-3.153 1.08h-1.665c-1.72 0-2.01-.346-2.01-1.168v-.234c0-.924.45-1.155 2.07-1.155h1.923c1.93 0 2.835.13 2.835 1.142v.334zm3.646 1.978h1.254v-10.463h-1.253v10.463zm11.797-6.057h-.03c-.393-1.2-1.34-1.43-2.287-1.43h-2.67c-1.403 0-3.357.304-3.357 2.977v1.23c0 1.893 1.04 2.948 3.124 2.948h2.58c1.753 0 2.264-.446 2.527-1.14h.03v1.1c0 1.992-.993 2.02-3.475 2.02h-1.226c-1.165 0-2.16-.274-2.16-1.226v-.202h-1.167v.244c0 .942.614 2.197 2.917 2.197h2.832c1.562 0 3.53-.447 3.53-2.67v-7.357h-1.17v1.313zm-.083 2.733c0 1.27-.66 1.977-2.456 1.977h-2.42c-1.533 0-2.147-.52-2.13-2.21v-1.36c.013-1.213.933-1.56 2.216-1.56h2.555c1.765 0 2.26.883 2.234 2.254v.898zm9.276-4.166h-1.793c-2.38 0-4.117.566-4.117 2.994v1.616c0 2.43 1.738 2.994 4.117 2.994h1.794c2.377 0 4.116-.565 4.116-2.994v-1.613c0-2.43-1.74-2.995-4.114-2.995zm2.858 4.54c0 1.718-1.02 2.05-2.48 2.05h-2.553c-1.457 0-2.48-.332-2.48-2.05v-1.473c0-1.72 1.023-2.052 2.48-2.052h2.556c1.46 0 2.478.33 2.478 2.052v1.474zm8.535-4.54c-1.27 0-2.408.35-2.73 1.52h-.027v-1.402h-2.625v7.37h2.8v-4.076c0-.88.672-1.243 1.635-1.243 1.125 0 1.343.448 1.343 1.386h2.422c.013-.258.028-.46.028-.65 0-2.038-.805-2.906-2.845-2.906zm4.507 7.488h2.8v-7.37h-2.8zm0-8.294h2.8v-2.17h-2.8zm12.05 2.28h-.03c-.174-1.155-1.357-1.475-2.508-1.475h-.83c-3.547 0-3.983 1.258-3.983 3.137v1.33c0 1.88.434 3.138 3.98 3.138h.816c1.692 0 2.392-.565 2.7-1.476h.028v1.36h2.626v-10.461h-2.8v4.45zm.175 2.69c0 1.112-.583 1.357-1.693 1.357h-1.646c-1.342 0-1.473-.464-1.473-1.286v-.866c0-.825.13-1.286 1.473-1.286h1.646c1.11 0 1.693.244 1.693 1.357v.722zm11.716-2.69h-.03c-.176-1.155-1.356-1.475-2.51-1.475h-.827c-3.547 0-3.983 1.258-3.983 3.137v1.33c0 1.88.435 3.138 3.982 3.138h.816c1.692 0 2.39-.565 2.698-1.476h.03v1.36h2.624v-10.461h-2.8v4.45zm.177 2.69c0 1.112-.583 1.357-1.694 1.357h-1.647c-1.343 0-1.476-.464-1.476-1.286v-.866c0-.825.132-1.286 1.475-1.286h1.647c1.11 0 1.694.244 1.694 1.357v.722zm4.71-4.97h2.8v-2.17h-2.8zm0 8.293h2.8v-7.37h-2.8zm17.27-7.487h-.86c-1.59 0-2.187.392-2.653 1.72-.526-1.154-1.43-1.72-2.76-1.72h-1.064c-1.373 0-2.333.508-2.48 1.563h-.03v-1.446h-2.67v7.37h2.803v-3.886c0-1.143.568-1.432 1.765-1.432 1.694 0 2.027.232 2.027 1.142v4.177h2.803v-4.06c0-.967.55-1.256 1.894-1.256 1.636 0 1.897.347 1.897 1.36v3.96h2.8v-4.15c0-2.11-.92-3.34-3.474-3.34zm7.87 7.517h3.25v-3.27h-3.25zm0-4.37h3.25v-3.27h-3.25zm4.363 4.37h3.248v-3.27h-3.25v3.27zm0-4.37h3.248v-3.27h-3.25v3.27zm5.453 4.37h3.25v-3.27h-3.25zm0-4.37h3.25v-3.27h-3.25zm4.365 4.37h3.248v-3.27h-3.248zm0-4.37h3.248v-3.27h-3.248z"/><path d="m102.586 12.01h3.25v-3.27h-3.25zm4.364 0h3.248v-3.27h-3.25v3.27zm5.453 0h3.25v-3.27h-3.25zm4.365 0h3.248v-3.27h-3.248z" fill-opacity=".6"/><path d="m102.586 7.64h3.25v-3.27h-3.25zm4.364 0h3.248v-3.27h-3.25v3.27zm5.453 0h3.25v-3.27h-3.25zm4.365 0h3.248v-3.27h-3.248z" fill-opacity=".4"/><path d="m102.586 3.303h3.25v-3.303h-3.25zm4.364 0h3.248v-3.303h-3.25v3.303zm5.453 0h3.25v-3.303h-3.25zm4.365 0h3.248v-3.303h-3.248z" fill-opacity=".15"/></g></svg>