<svg enable-background="new 0 0 774.39001 135.00999" viewBox="0 0 774.39001 135.00999" xmlns="http://www.w3.org/2000/svg"><path d="m438.91013 54.35034c5.16913-8.8857 14.87878-15.01652 29.72125-15.01652 23.56036 0 34.20288 15.47234 34.20288 32.88057 0 17.4095-10.64252 33.0033-34.20291 33.0033-14.85626 0-24.57465-6.18843-29.72879-15.12422l.00754.07263v13.4763c-4.84357 0-10.27316.73-15.35587.73-10.15042 0-21.39279-1.57652-21.39279-18.73935v-29.97415h-10.56864l.0213-.05009c.29498 2.744.41086 5.50429.34686 8.26335v25.75174c0 4.72084.23792 10.03523 2.89886 14.01852h-24.42191c-.63763-1.90393-.92404-3.90788-.84525-5.9142h-.2467c-5.0752 5.79774-12.44824 7.48949-20.19193 7.48949-12.08759 0-22.11533-5.79774-22.11533-18.97727 0-19.82377 23.20724-19.1075 35.41132-21.4003 3.26074-.59981 6.54156-1.56777 6.54156-5.55857 0-4.23748-3.99707-5.799-7.87265-5.799-7.36676 0-8.82684 3.73785-8.9433 6.40507h-22.19418v1.569c-3.00955-1.14507-6.21725-1.67847-9.43542-1.569-9.41913 0-14.49435 5.55355-14.49435 18.97852v24.77628h-23.94478v-25.98344h-45.24367c.60733 7.12884 4.72083 12.1953 12.21033 12.1953 3.8681 0 8.10429-1.43879 10.04274-4.46038h22.362c-4.8298 13.54142-18.01685 19.82378-32.28078 19.82378-15.99951 0-28.85349-7.52579-33.40778-21.18993l.01378.20286c-.70874 16.47661-16.99001 20.98707-31.89008 20.98707-14.75607 0-30.94968-5.92045-31.31157-22.11406h22.85287c.13187 2.17725 1.18362 4.19563 2.89261 5.55105 1.21465 1.09193 3.52 1.822 6.41258 1.822 3.15182 0 8.10432-1.21464 8.10432-4.84356 0-3.62265-2.05363-4.71333-13.18704-6.64424-18.24722-3.1443-25.614-8.94956-25.614-19.70731 0-15.848 17.03886-19.94773 29.61232-19.94773 13.53391 0 29.85774 3.74536 30.46506 19.82377h-21.76094c-.12155-1.9237-1.15265-3.67429-2.77617-4.71332-1.51405-1.20045-3.39613-1.84138-5.32816-1.81446-3.38348 0-7.24405.72253-7.24405 4.84356 0 1.80819 1.45258 2.65344 2.77615 3.25325 3.98329 1.69925 13.05682 2.17634 21.02339 4.84355 5.60365 1.77188 10.72144 4.63444 13.28101 9.71717l.00751.07263c-.07262-.95419-.10893-1.92299-.10895-2.90638 0-18.25473 13.30226-33.11975 33.13353-33.11975 21.31264 0 32.25948 10.18048 34.97676 28.42019l-.01376-.29678v-26.54693h22.97559v10.02771h.23914c3.86685-7.5045 8.94205-11.60425 17.64618-11.60425 2.37015.01582 4.72803.34165 7.01364.96921v18.39876l.01501.20286c1.28601-16.77964 17.62488-19.57082 32.20691-19.57082 22.40457 0 27.93561 6.941 29.30176 15.50113l.00754.06512v-13.98972h10.6488v-19.1075h23.93851v19.1075h12.81015zm-179.07132 10.85166c.12158-5.68427-4.38783-10.39086-10.0721-10.51245-.1488-.00319-.29767-.00314-.44647.00013-7.13635 0-11.24237 3.74536-12.33429 10.51232zm109.15286 10.28067c-3.01398 1.38396-6.1842 2.39851-9.44168 3.02159-5.31314 1.20838-8.0968 2.53823-8.0968 6.767 0 2.89887 3.14557 5.80525 7.50452 5.80525 5.4296 0 9.65829-3.267 10.034-9.79605zm57.10834-19.82377v21.8761c0 5.80651 1.32233 8.336 7.36551 8.336 1.12201 0 2.2352-.04258 3.35468-.12272l.02255.03631c-1.63995-4.33459-2.46115-8.93593-2.42178-13.57022-.07916-5.75191 1.22192-11.43898 3.79419-16.58429zm42.5314 1.08441c-9.07352 0-10.28818 8.82684-10.28818 15.47107 0 6.65175 1.21466 15.59505 10.28818 15.59505 9.06601 0 10.27313-8.9433 10.27313-15.59505 0-6.64424-1.20715-15.47107-10.27313-15.47107" fill="#fff"/><path d="m67.50616 6.77066c-33.54312-.00087-60.7359 27.19049-60.73677 60.73361-.00087 33.54311 27.19049 60.7359 60.73362 60.73677 33.54169.00087 60.73387-27.18826 60.73677-60.72993.00131-33.5439-27.18972-60.73798-60.73362-60.74045z" fill="#fff"/><path d="m67.50622.99924c-36.73065-.00094-66.50748 29.77436-66.50842 66.50499-.00095 36.73064 29.77436 66.50748 66.505 66.50843 36.72904.00093 66.50521-29.77189 66.50842-66.50093.00137-36.73147-29.77352-66.50972-66.505-66.51249" fill="#0068a9"/><g fill="#fff"><path d="m116.8261 76.12984c-1.83412.00056-3.32228-1.48424-3.32588-3.31836v-10.5048c-.03293-1.45866.87311-2.77408 2.2477-3.26327 1.73938-.58846 3.62646.34455 4.21492 2.08393.11598.3428.1752.70225.17535 1.06414v10.62c.00068 1.83052-1.48157 3.31559-3.31209 3.31836"/><path d="m105.66388 87.09008c-.00819 2.02657-1.6577 3.6628-3.68427 3.65461-.54073-.00219-1.07428-.12385-1.5625-.35628-1.26659-.59086-2.06645-1.87214-2.04111-3.26953v-10.94559c-.01509-2.28357-1.87852-4.12254-4.16209-4.10745-2.26763.01498-4.1001 1.85356-4.10752 4.12123v26.2952c.02257 1.72868-1.06023 3.27907-2.691 3.85306-2.13928.76463-4.49336-.34975-5.258-2.48901-.13699-.38326-.21633-.7847-.23545-1.19124l-.00749-.18784v-8.00289c-.10468-2.52773-2.23867-4.492-4.7664-4.38731-.26611.01102-.53077.04523-.79094.10224-2.13165.51159-3.62104 2.43635-3.58131 4.62817v24.30418c.04697 2.53339-1.68507 4.75417-4.15361 5.32565-2.83054.59808-5.60998-1.21169-6.20806-4.04222-.07369-.34875-.11159-.7041-.11311-1.06055v-24.71112c-.01446-2.52628-2.07413-4.56253-4.60042-4.54807-2.45818.01407-4.46571 1.96844-4.54572 4.42535v7.96658l-.00627.15152c-.08072 2.25977-1.97806 4.02623-4.23782 3.94551-2.18513-.07805-3.92332-1.8593-3.94787-4.04568v-26.35908c-.02547-2.28665-1.89982-4.11971-4.18647-4.09423-.24325.00271-.48578.02685-.72478.07214-1.99526.43576-3.40276 2.22319-3.35844 4.265v10.605c.04909 2.01427-1.54401 3.68694-3.55827 3.73602-2.01427.04909-3.68694-1.544-3.73603-3.55827-.00077-.0317-.00113-.06341-.00108-.09512v-39.08152c-.05095-2.01424 1.54062-3.6884 3.55486-3.73935 2.01424-.05094 3.6884 1.54062 3.73934 3.55486.00081.03185.0012.06371.00117.09557v10.68764c-.04433 2.04182 1.36316 3.82927 3.35844 4.26504 2.24682.42571 4.41334-1.05059 4.83905-3.29741.04527-.23898.06941-.48148.07212-.72469v-26.35406c-.02992-1.56581.86591-3.00212 2.28526-3.664 2.05708-.98139 4.52024-.10938 5.50163 1.94769.24068.5045.37637 1.05264.39883 1.61117l.00627.15151v7.96649c.08223 2.52499 2.1958 4.50523 4.72079 4.423 2.45692-.08001 4.41129-2.08755 4.42535-4.54572v-24.7324c-.0349-2.05205 1.16658-3.92412 3.04669-4.74713 2.65852-1.18982 5.77823.00079 6.96805 2.65932.30106.67266.45779 1.40096.46008 2.13791v24.49952c-.03967 2.19154 1.44981 4.1159 3.58131 4.62692 2.4719.54087 4.91425-1.02454 5.45512-3.49644.0573-.26187.09151-.52827.10223-.79613v-7.99537l.00749-.18782c.10673-2.26932 2.03289-4.02244 4.30221-3.91571.40654.01912.80799.09846 1.19124.23545 1.63054.57428 2.71321 2.12448 2.691 3.85305v26.28769c.004 2.28362 1.85847 4.13161 4.14209 4.12762 2.26966-.00397 4.11187-1.83671 4.12753-4.10632v-10.94561c-.02534-1.39739.77452-2.67867 2.04111-3.26953 1.8298-.87114 4.01935-.09399 4.89049 1.73582.23244.48822.3541 1.02179.35628 1.56252z"/><path d="m21.56144 72.81123c-.00071 1.8345-1.48843 3.32108-3.32293 3.32037-.20304-.00008-.40566-.01878-.60529-.05585-1.60754-.34486-2.74396-1.78233-2.70855-3.42606v-10.29693c-.03541-1.64372 1.10101-3.08118 2.70853-3.42605 1.80407-.33465 3.53785.85656 3.8725 2.66064.03695.19917.0556.40131.05572.60387z"/></g><path d="m67.50622 61.83484c-3.13153-.00147-5.67134 2.53594-5.67281 5.66747s2.53595 5.67133 5.66748 5.67281c3.13068.00147 5.67012-2.53461 5.67281-5.66528-.00171-3.13058-2.53691-5.66914-5.66748-5.675" fill="#0068a9"/><g fill="#fff"><path d="m547.79968 41.3523c9.45312.23242 16.57257 2.88606 21.3584 7.96094 4.78516 5.0752 7.17773 12.77473 7.17773 23.09863 0 10.32422-2.39258 18.02345-7.17773 23.09766-4.78467 5.07617-11.90411 7.72981-21.3584 7.96094h-21.48877v-62.11817zm-2.95801 57.07227c3.8913.07447 7.77319-.40895 11.52734-1.43555 2.99585-.82794 5.73413-2.39896 7.96094-4.56738 2.19128-2.2675 3.77686-5.04983 4.61084-8.09082 1.06036-3.88183 1.55847-7.89568 1.479-11.91895.07947-4.02327-.41864-8.03712-1.479-11.91895-.83374-3.04138-2.41937-5.82407-4.61084-8.0918-2.22681-2.16842-4.96509-3.73944-7.96094-4.56738-3.75415-1.02659-7.63605-1.51001-11.52734-1.43553h-12.61475v52.02636z"/><path d="m616.87732 41.3523v44.8047c.04871 2.78545-.27307 5.56501-.95697 8.26563-.54034 2.1394-1.60126 4.112-3.08838 5.74219-1.54028 1.58212-3.45563 2.74915-5.56787 3.39258-2.75104.81779-5.61322 1.19937-8.48242 1.13086-3.00134.11513-5.98615-.49663-8.7002-1.7832-2.14404-1.08304-3.97211-2.70135-5.30713-4.69824-1.31763-2.04744-2.20551-4.34122-2.60986-6.74219-.46979-2.61268-.70264-5.26244-.6958-7.917h5.91602c.05713 1.33496.14404 2.93002.26074 4.78516.10846 1.82428.5202 3.61773 1.21826 5.30664.72803 1.72405 1.91705 3.21414 3.43652 4.30664 1.59424 1.18946 3.92871 1.78386 7.00342 1.7832 1.95441.06085 3.90259-.24897 5.7417-.91309 1.45599-.5675 2.70172-1.57005 3.56738-2.87109.95129-1.52193 1.57349-3.2261 1.82666-5.00293.37708-2.4171.5517-4.86147.52197-7.30762v-42.28224z"/><path d="m681.17029 41.3523c2.57098-.03372 5.12952.36337 7.56934 1.1748 2.17004.7285 4.15802 1.91516 5.8291 3.47949 1.64606 1.57158 2.92358 3.48825 3.74072 5.6123 1.74023 4.83617 1.74023 10.1277 0 14.96386-.81647 2.12414-2.09406 4.04064-3.74072 5.61133-1.67059 1.565-3.65875 2.75175-5.8291 3.47949-2.43982.81142-4.99835 1.20852-7.56934 1.1748h-21.6626v26.62207h-5.91602v-62.11814zm-1.30469 30.4502c4.11774 0 7.4527-1.04395 10.00488-3.13184 2.55182-2.08789 3.82782-5.278 3.82812-9.57031.00006-4.29102-1.276-7.48112-3.82812-9.57031-2.55267-2.08789-5.88763-3.13184-10.00488-3.13184h-20.35791v25.4043z"/><path d="m712.40271 58.57887v10.52636h.17383c1.21613-3.42618 3.4848-6.37988 6.48145-8.43848 3.10632-2.01939 6.78821-2.96669 10.4834-2.69727v5.48145c-2.30688-.14461-4.61853.19605-6.78564 1-1.96631.74249-3.75824 1.88281-5.26367 3.34961-1.49176 1.46891-2.66199 3.23176-3.43652 5.17676-.8291 2.08946-1.24274 4.32056-1.21777 6.56836v23.9248h-5.48102v-44.89159z"/><path d="m761.25281 59.18727c2.55975 1.21584 4.82928 2.96606 6.65576 5.13281 1.83759 2.22025 3.22626 4.77641 4.08887 7.52637 1.85614 5.97806 1.85614 12.3784 0 18.35645-.86218 2.74984-2.25092 5.30576-4.08887 7.52539-1.81982 2.16277-4.09174 3.90019-6.65576 5.08984-5.80438 2.49348-12.37823 2.49348-18.18262 0-2.56439-1.18901-4.83649-2.92653-6.65576-5.08984-1.83905-2.21891-3.22791-4.77505-4.08887-7.52539-1.85614-5.97805-1.85614-12.3784 0-18.35645.86139-2.75046 2.25018-5.30683 4.08887-7.52637 1.82593-2.16729 4.09558-3.91761 6.65576-5.13281 5.79224-2.55207 12.39038-2.55207 18.18262 0zm-15.96436 4.3506c-1.93756 1.07199-3.61566 2.55692-4.91553 4.34961-1.33423 1.8576-2.33514 3.93314-2.95801 6.13379-1.33398 4.57366-1.33398 9.43317 0 14.00684.62244 2.20081 1.62341 4.27641 2.95801 6.13379 1.29932 1.79318 2.97754 3.27822 4.91553 4.34961 4.31689 2.20443 9.4292 2.20443 13.74609 0 1.93768-1.07179 3.61584-2.55676 4.91553-4.34961 1.33386-1.85783 2.33472-3.9333 2.95801-6.13379 1.33398-4.57366 1.33398-9.43317 0-14.00684-.62366-2.20034-1.62451-4.27574-2.95801-6.13379-1.30017-1.79236-2.97827-3.27722-4.91553-4.34961-4.31689-2.20443-9.42919-2.20443-13.74609 0z"/></g></svg>