<?xml version="1.0" encoding="UTF-8"?>
<svg id="Layer_1" xmlns="http://www.w3.org/2000/svg" version="1.1" viewBox="0 0 96.6 93.7">
  <!-- Generator: Adobe Illustrator 29.0.1, SVG Export Plug-In . SVG Version: 2.1.0 Build 192)  -->
  <defs>
    <style>
      .st0, .st1 {
        fill: #fff;
      }

      .st0, .st2 {
        opacity: .2;
      }

      .st3 {
        fill: #6ce382;
      }
    </style>
  </defs>
  <g>
    <path class="st3" d="M88.1,45.4c-1.8,0-3.3-1.3-3.5-3.1-2-18.5-17.1-31.9-35.9-31.9S15.5,24,13.3,42.1c-.2,1.9-2,3.3-3.9,3.1-1.9-.2-3.3-2-3.1-3.9C9,19.7,27.2,3.4,48.8,3.4s40.4,16,42.8,38.2c.2,1.9-1.2,3.7-3.1,3.9-.1,0-.3,0-.4,0Z"/>
    <circle class="st3" cx="48.6" cy="20.5" r="4.8"/>
    <circle class="st3" cx="35.7" cy="29.9" r="4.8"/>
    <circle class="st3" cx="61.9" cy="29.9" r="4.8"/>
    <rect class="st3" x="45" y="29.2" width="7.2" height="49.3" rx="3.6" ry="3.6"/>
    <rect class="st3" x="57.9" y="38.1" width="7.2" height="31.8" rx="3.6" ry="3.6"/>
    <rect class="st3" x="32.7" y="38.1" width="7.2" height="31.8" rx="3.6" ry="3.6"/>
    <rect class="st3" x="70.9" y="35.1" width="7.2" height="25.9" rx="3.6" ry="3.6"/>
    <rect class="st3" x="19.4" y="35.1" width="7.2" height="25.9" rx="3.6" ry="3.6"/>
    <path class="st3" d="M48.7,90.4c-21.1,0-38.5-14.7-42.3-35.7-.3-1.9.9-3.7,2.8-4.1,1.9-.3,3.7.9,4.1,2.8,3.2,17.6,17.8,29.9,35.4,29.9s33-12.7,36-30.3c.3-1.9,2.1-3.2,4-2.9,1.9.3,3.2,2.1,2.9,4-3.6,20.9-21.6,36.1-42.9,36.1Z"/>
  </g>
  <path class="st0" d="M45.2,21.8c0-2.5,2-4.6,4.6-4.6s1.8.3,2.5.8c-.8-1.2-2.2-2.1-3.8-2.1-2.5,0-4.6,2.1-4.6,4.6s.8,3,2,3.8c-.5-.7-.8-1.6-.8-2.5Z"/>
  <path class="st0" d="M59.3,65.9v-24.1c0-1.6,1-3,2.4-3.4-.3,0-.5-.1-.8-.1-1.8,0-3.2,1.6-3.2,3.5v24.1c0,1.9,1.4,3.5,3.2,3.5s.5,0,.8-.1c-1.4-.4-2.4-1.8-2.4-3.4Z"/>
  <g class="st2">
    <path class="st1" d="M50.7,90.1c-21.1,0-38.5-14.7-42.3-35.7-.3-1.5.5-2.9,1.7-3.7-.3,0-.6,0-.9,0-1.9.3-3.2,2.2-2.8,4.1,3.8,21,21.2,35.7,42.3,35.7s7.2-.5,10.5-1.3c-2.8.5-5.6.8-8.5.8Z"/>
    <path class="st1" d="M86.7,52.9c.2-1.1.8-1.9,1.7-2.4-1.8-.1-3.4,1.1-3.7,2.9-2.5,14.5-13.2,25.7-27,29.1,14.7-2.8,26.4-14.4,29-29.6Z"/>
  </g>
  <path class="st0" d="M58.5,31.3c0-2.5,2-4.5,4.4-4.5s1.7.3,2.4.8c-.8-1.2-2.1-2-3.6-2-2.4,0-4.4,2-4.4,4.5s.8,2.9,2,3.7c-.5-.7-.7-1.6-.7-2.5Z"/>
  <path class="st0" d="M32.1,31.1c0-2.5,2.1-4.6,4.7-4.6s1.9.3,2.6.8c-.8-1.2-2.3-2.1-3.9-2.1-2.6,0-4.7,2.1-4.7,4.6s.8,3,2.1,3.8c-.5-.7-.8-1.6-.8-2.5Z"/>
  <path class="st0" d="M46.3,74.8v-41.2c0-1.8,1.2-3.3,2.8-3.5-.3-.2-.7-.2-1.1-.2-1.7,0-3,1.6-3,3.5v41.2c0,1.9,1.4,3.5,3,3.5s.2,0,.2,0c-1.1-.5-1.9-1.8-1.9-3.3Z"/>
  <path class="st0" d="M34.5,66.2v-24.1c0-1.6,1.1-3,2.7-3.4-.3,0-.6-.1-.9-.1-2,0-3.6,1.6-3.6,3.5v24.1c0,1.9,1.6,3.5,3.6,3.5s.6,0,.9-.1c-1.5-.4-2.7-1.8-2.7-3.4Z"/>
  <path class="st0" d="M72.6,57.7v-19.7c0-1.3.9-2.5,2.2-2.8-.2,0-.5-.1-.7-.1-1.6,0-2.9,1.3-2.9,2.9v19.7c0,1.6,1.3,2.9,2.9,2.9s.5,0,.7-.1c-1.2-.3-2.2-1.4-2.2-2.8Z"/>
  <path class="st0" d="M21.1,57.7v-19.7c0-1.3,1-2.5,2.3-2.8-.2,0-.5-.1-.8-.1-1.7,0-3.1,1.3-3.1,2.9v19.7c0,1.6,1.4,2.9,3.1,2.9s.5,0,.8-.1c-1.3-.3-2.3-1.4-2.3-2.8Z"/>
  <g class="st2">
    <path class="st1" d="M7.7,41.3C10.3,19.9,28.2,3.6,49.6,3.4c-.2,0-.4,0-.6,0C27.4,3.4,9.2,19.7,6.6,41.3c-.2,1.9,1.1,3.7,3.1,3.9.3,0,.7,0,1,0-1.8-.3-3.1-2-2.9-3.9Z"/>
    <path class="st1" d="M86,42.3c-2-18.5-17.1-31.9-35.9-31.9s-.4,0-.5,0c18.5.3,33.3,13.6,35.3,31.9.2,1.8,1.7,3.1,3.5,3.1s.3,0,.4,0c0,0,0,0,.2,0-1.5-.3-2.7-1.5-2.9-3.1Z"/>
  </g>
</svg>