<?xml version="1.0" encoding="UTF-8"?>
<svg id="Layer_1" xmlns="http://www.w3.org/2000/svg" version="1.1" viewBox="0 0 98 99.4">
  <!-- Generator: Adobe Illustrator 29.0.1, SVG Export Plug-In . SVG Version: 2.1.0 Build 192)  -->
  <defs>
    <style>
      .st0, .st1 {
        fill: #fff;
      }

      .st0, .st2 {
        opacity: .2;
      }

      .st3 {
        fill: #8e0507;
        opacity: .4;
      }

      .st4 {
        fill: #e8232a;
      }
    </style>
  </defs>
  <path class="st3" d="M89,47.9c-1.8,0-3.3-1.3-3.5-3.1-2-18.5-17.1-31.9-35.9-31.9S16.4,26.6,14.2,44.7c-.2,1.9-2,3.3-3.9,3.1-1.9-.2-3.3-2-3.1-3.9C9.9,22.2,28.1,5.9,49.7,5.9s40.4,16,42.8,38.2c.2,1.9-1.2,3.7-3.1,3.9-.1,0-.3,0-.4,0Z"/>
  <circle class="st3" cx="49.5" cy="23.1" r="4.8"/>
  <circle class="st3" cx="36.6" cy="32.4" r="4.8"/>
  <circle class="st3" cx="62.8" cy="32.4" r="4.8"/>
  <rect class="st3" x="45.9" y="31.8" width="7.2" height="49.3" rx="3.6" ry="3.6"/>
  <rect class="st3" x="58.8" y="40.6" width="7.2" height="31.8" rx="3.6" ry="3.6"/>
  <rect class="st3" x="33.6" y="40.6" width="7.2" height="31.8" rx="3.6" ry="3.6"/>
  <rect class="st3" x="71.8" y="37.6" width="7.2" height="25.9" rx="3.6" ry="3.6"/>
  <rect class="st3" x="20.3" y="37.6" width="7.2" height="25.9" rx="3.6" ry="3.6"/>
  <path class="st3" d="M49.6,93c-21.1,0-38.5-14.7-42.3-35.7-.3-1.9.9-3.7,2.8-4.1,1.9-.3,3.7.9,4.1,2.8,3.2,17.6,17.8,29.9,35.4,29.9s33-12.7,36-30.3c.3-1.9,2.1-3.2,4-2.9,1.9.3,3.2,2.1,2.9,4-3.6,20.9-21.6,36.1-42.9,36.1Z"/>
  <path class="st4" d="M87.9,47.7c-1.8,0-3.3-1.3-3.5-3.1-2-18.5-17.1-31.9-35.9-31.9S15.3,26.3,13.1,44.4c-.2,1.9-2,3.3-3.9,3.1-1.9-.2-3.3-2-3.1-3.9C8.7,21.9,27,5.6,48.5,5.6s40.4,16,42.8,38.2c.2,1.9-1.2,3.7-3.1,3.9-.1,0-.3,0-.4,0Z"/>
  <circle class="st4" cx="48.4" cy="22.8" r="4.8"/>
  <path class="st0" d="M45,24.1c0-2.5,2-4.6,4.6-4.6s1.8.3,2.5.8c-.8-1.2-2.2-2.1-3.8-2.1-2.5,0-4.6,2.1-4.6,4.6s.8,3,2,3.8c-.5-.7-.8-1.6-.8-2.5Z"/>
  <circle class="st4" cx="35.5" cy="32.2" r="4.8"/>
  <circle class="st4" cx="61.7" cy="32.2" r="4.8"/>
  <rect class="st4" x="44.7" y="31.5" width="7.2" height="49.3" rx="3.6" ry="3.6"/>
  <rect class="st4" x="57.6" y="40.3" width="7.2" height="31.8" rx="3.6" ry="3.6"/>
  <path class="st0" d="M59.1,68.2v-24.1c0-1.6,1-3,2.4-3.4-.3,0-.5-.1-.8-.1-1.8,0-3.2,1.6-3.2,3.5v24.1c0,1.9,1.4,3.5,3.2,3.5s.5,0,.8-.1c-1.4-.4-2.4-1.8-2.4-3.4Z"/>
  <rect class="st4" x="32.5" y="40.3" width="7.2" height="31.8" rx="3.6" ry="3.6"/>
  <rect class="st4" x="70.6" y="37.3" width="7.2" height="25.9" rx="3.6" ry="3.6"/>
  <rect class="st4" x="19.2" y="37.3" width="7.2" height="25.9" rx="3.6" ry="3.6"/>
  <path class="st4" d="M48.5,92.7c-21.1,0-38.5-14.7-42.3-35.7-.3-1.9.9-3.7,2.8-4.1,1.9-.3,3.7.9,4.1,2.8,3.2,17.6,17.8,29.9,35.4,29.9s33-12.7,36-30.3c.3-1.9,2.1-3.2,4-2.9,1.9.3,3.2,2.1,2.9,4-3.6,20.9-21.6,36.1-42.9,36.1Z"/>
  <g class="st2">
    <path class="st1" d="M50.5,92.3c-21.1,0-38.5-14.7-42.3-35.7-.3-1.5.5-2.9,1.7-3.7-.3,0-.6,0-.9,0-1.9.3-3.2,2.2-2.8,4.1,3.8,21,21.2,35.7,42.3,35.7s7.2-.5,10.5-1.3c-2.8.5-5.6.8-8.5.8Z"/>
    <path class="st1" d="M86.4,55.1c.2-1.1.8-1.9,1.7-2.4-1.8-.1-3.4,1.1-3.7,2.9-2.5,14.5-13.2,25.7-27,29.1,14.7-2.8,26.4-14.4,29-29.6Z"/>
  </g>
  <path class="st0" d="M58.3,33.6c0-2.5,2-4.5,4.4-4.5s1.7.3,2.4.8c-.8-1.2-2.1-2-3.6-2-2.4,0-4.4,2-4.4,4.5s.8,2.9,2,3.7c-.5-.7-.7-1.6-.7-2.5Z"/>
  <path class="st0" d="M31.9,33.4c0-2.5,2.1-4.6,4.7-4.6s1.9.3,2.6.8c-.8-1.2-2.3-2.1-3.9-2.1-2.6,0-4.7,2.1-4.7,4.6s.8,3,2.1,3.8c-.5-.7-.8-1.6-.8-2.5Z"/>
  <path class="st0" d="M46.1,77.1v-41.2c0-1.8,1.2-3.3,2.8-3.5-.3-.2-.7-.2-1.1-.2-1.7,0-3,1.6-3,3.5v41.2c0,1.9,1.4,3.5,3,3.5s.2,0,.2,0c-1.1-.5-1.9-1.8-1.9-3.3Z"/>
  <path class="st0" d="M34.3,68.4v-24.1c0-1.6,1.1-3,2.7-3.4-.3,0-.6-.1-.9-.1-2,0-3.6,1.6-3.6,3.5v24.1c0,1.9,1.6,3.5,3.6,3.5s.6,0,.9-.1c-1.5-.4-2.7-1.8-2.7-3.4Z"/>
  <path class="st0" d="M72.3,59.9v-19.7c0-1.3.9-2.5,2.2-2.8-.2,0-.5-.1-.7-.1-1.6,0-2.9,1.3-2.9,2.9v19.7c0,1.6,1.3,2.9,2.9,2.9s.5,0,.7-.1c-1.2-.3-2.2-1.4-2.2-2.8Z"/>
  <path class="st0" d="M20.8,59.9v-19.7c0-1.3,1-2.5,2.3-2.8-.2,0-.5-.1-.8-.1-1.7,0-3.1,1.3-3.1,2.9v19.7c0,1.6,1.4,2.9,3.1,2.9s.5,0,.8-.1c-1.3-.3-2.3-1.4-2.3-2.8Z"/>
  <g class="st2">
    <path class="st1" d="M7.5,43.6C10,22.1,28,5.9,49.3,5.6c-.2,0-.4,0-.6,0C27.2,5.6,9,21.9,6.3,43.6c-.2,1.9,1.1,3.7,3.1,3.9.3,0,.7,0,1,0-1.8-.3-3.1-2-2.9-3.9Z"/>
    <path class="st1" d="M85.7,44.5c-2-18.5-17.1-31.9-35.9-31.9s-.4,0-.5,0c18.5.3,33.3,13.6,35.3,31.9.2,1.8,1.7,3.1,3.5,3.1s.3,0,.4,0c0,0,0,0,.2,0-1.5-.3-2.7-1.5-2.9-3.1Z"/>
  </g>
</svg>